<svg xmlns="http://www.w3.org/2000/svg" xmlns:xlink="http://www.w3.org/1999/xlink" version="1.1" x="0px" y="0px" viewBox="0 0 100 125" enable-background="new 0 0 100 100" xml:space="preserve"><g><g><path d="M78.791,58.437c-0.521,0-1.049-0.04-1.589-0.12c-5.655-0.875-9.538-6.181-8.66-11.827c0.292-1.89-2.048-2.782-2.151-2.819    c-5.357-1.973-8.122-7.941-6.16-13.304c1.509-4.061,5.426-6.788,9.751-6.788c1.216,0,2.409,0.215,3.556,0.634    c6.355,2.337,17.77,10.663,15.487,25.447C88.232,54.745,83.931,58.437,78.791,58.437z M69.981,26.514    c-3.104,0-5.914,1.956-6.992,4.867c-1.405,3.84,0.573,8.116,4.411,9.533c1.623,0.582,4.571,2.598,4.043,6.022    c-0.625,4.05,2.157,7.85,6.201,8.478c4.124,0.619,7.852-2.183,8.478-6.204c1.99-12.905-8.024-20.193-13.6-22.24    C71.708,26.669,70.848,26.514,69.981,26.514z"/></g></g><g><path d="M70.423,40.045c-3.281,0-5.948-2.67-5.948-5.951c0-3.281,2.667-5.951,5.948-5.951s5.954,2.67,5.954,5.951   C76.377,37.375,73.704,40.045,70.423,40.045z M70.423,31.08c-1.663,0-3.012,1.351-3.012,3.014c0,1.664,1.349,3.015,3.012,3.015   s3.017-1.351,3.017-3.015C73.439,32.431,72.086,31.08,70.423,31.08z"/></g><g><g><path d="M50.813,90.746c-2.443,0-4.795-0.536-6.998-1.592C10.484,73.289,9.411,38.124,13.501,21.748    c1.818-7.27,8.312-12.346,15.785-12.346c1.33,0,2.667,0.164,3.975,0.488c8.649,2.168,13.983,10.981,11.885,19.648    c-0.517,2.214-4.555,21.996,12.676,30.204c3.929,1.867,6.895,5.154,8.352,9.252c1.457,4.104,1.228,8.526-0.648,12.455    C62.846,87.096,57.07,90.746,50.813,90.746z M29.286,12.338c-6.126,0-11.443,4.161-12.935,10.121    c-3.889,15.57-2.891,48.995,28.73,64.046c1.807,0.866,3.734,1.305,5.73,1.305c5.128,0,9.865-2.991,12.063-7.623    c1.537-3.221,1.721-6.846,0.527-10.21c-1.193-3.36-3.625-6.054-6.843-7.585c-19.301-9.195-14.845-31.071-14.276-33.534    c1.727-7.115-2.645-14.342-9.733-16.118C31.477,12.473,30.382,12.338,29.286,12.338z"/></g></g><g><path d="M28.913,33.535c-3.998,0-7.25-3.252-7.25-7.25c0-3.998,3.252-7.25,7.25-7.25s7.25,3.252,7.25,7.25   C36.163,30.283,32.911,33.535,28.913,33.535z M28.913,21.972c-2.38,0-4.313,1.936-4.313,4.313s1.934,4.313,4.313,4.313   c2.375,0,4.313-1.936,4.313-4.313S31.288,21.972,28.913,21.972z"/></g><g><path d="M50.583,82.476c-3.998,0-7.25-3.253-7.25-7.25c0-3.998,3.252-7.25,7.25-7.25s7.25,3.252,7.25,7.25   C57.833,79.223,54.581,82.476,50.583,82.476z M50.583,70.912c-2.375,0-4.313,1.936-4.313,4.313c0,2.377,1.938,4.313,4.313,4.313   c2.38,0,4.313-1.936,4.313-4.313C54.896,72.848,52.963,70.912,50.583,70.912z"/></g><g><path d="M34.694,71.176c-2.403,0-4.358-1.956-4.358-4.359s1.955-4.358,4.358-4.358s4.359,1.955,4.359,4.358   S37.098,71.176,34.694,71.176z M34.694,65.395c-0.785,0-1.422,0.639-1.422,1.422c0,0.786,0.637,1.423,1.422,1.423   c0.786,0,1.423-0.637,1.423-1.423C36.117,66.033,35.48,65.395,34.694,65.395z"/></g><g><path d="M36.599,57.972c-2.093,0-3.797-1.703-3.797-3.797s1.704-3.797,3.797-3.797c2.094,0,3.798,1.703,3.798,3.797   S38.692,57.972,36.599,57.972z M36.599,53.314c-0.476,0-0.86,0.388-0.86,0.86s0.385,0.86,0.86,0.86c0.471,0,0.86-0.388,0.86-0.86   S37.069,53.314,36.599,53.314z"/></g><g><path d="M25.821,48.118c-3.28,0-5.948-2.67-5.948-5.951s2.668-5.951,5.948-5.951c3.281,0,5.954,2.67,5.954,5.951   S29.103,48.118,25.821,48.118z M25.821,39.153c-1.663,0-3.011,1.351-3.011,3.014c0,1.664,1.348,3.014,3.011,3.014   s3.018-1.351,3.018-3.014C28.839,40.504,27.484,39.153,25.821,39.153z"/></g><g><rect x="31.568" y="3.254" transform="matrix(0.9487 0.3163 -0.3163 0.9487 3.961 -10.0813)" width="2.938" height="7.816"/></g><g><rect x="12.705" y="9.425" transform="matrix(0.6031 0.7977 -0.7977 0.6031 15.4688 -9.3009)" width="8.751" height="2.935"/></g><g><rect x="5.779" y="23.925" transform="matrix(0.9772 0.2125 -0.2125 0.9772 5.6238 -1.54)" width="8.394" height="2.935"/></g><g><rect x="7.621" y="36.737" transform="matrix(0.1991 0.98 -0.98 0.1991 47.4747 23.9421)" width="2.938" height="8.558"/></g><g><rect x="10.432" y="51.751" transform="matrix(0.4276 0.904 -0.904 0.4276 57.4165 21.2862)" width="2.937" height="8.454"/></g><g><rect x="16.422" y="64.717" transform="matrix(0.3044 0.9525 -0.9525 0.3044 77.5401 30.4919)" width="2.938" height="7.245"/></g><g><polygon points="25.5,85.021 23.452,82.917 29.28,77.262 31.328,79.366  "/></g><g><rect x="37.017" y="85.258" transform="matrix(0.9001 0.4356 -0.4356 0.9001 42.8743 -7.8168)" width="2.937" height="8.688"/></g><g><polygon points="54.965,95.673 52.929,89.281 55.728,88.386 57.764,94.778  "/></g><g><rect x="63.128" y="82.304" transform="matrix(0.8804 0.4742 -0.4742 0.8804 47.7586 -21.8348)" width="8.085" height="2.938"/></g><g><rect x="67.384" y="63.843" transform="matrix(0.3068 0.9518 -0.9518 0.3068 112.5696 -18.3048)" width="2.935" height="8.574"/></g><g><rect x="56.679" y="53.064" transform="matrix(0.7274 0.6862 -0.6862 0.7274 55.0546 -24.3239)" width="2.933" height="8.15"/></g><g><polygon points="45.375,46.412 44.233,43.704 51.07,40.813 52.212,43.521  "/></g><g><rect x="43.682" y="28.253" transform="matrix(0.9912 0.1327 -0.1327 0.9912 4.3646 -6.0631)" width="7.997" height="2.934"/></g><g><rect x="43.959" y="9.19" transform="matrix(0.6607 0.7507 -0.7507 0.6607 26.0841 -29.278)" width="2.934" height="10.044"/></g><g><rect x="61.05" y="39.212" transform="matrix(0.3378 0.9412 -0.9412 0.3378 82.6806 -29.8013)" width="2.937" height="9.292"/></g><g><rect x="69.425" y="53.938" transform="matrix(0.7109 0.7033 -0.7033 0.7109 60.4674 -33.4264)" width="2.937" height="5.803"/></g><g><rect x="67.383" y="18.048" width="2.937" height="7.101"/></g><g><rect x="82.129" y="26.724" transform="matrix(0.5369 0.8436 -0.8436 0.5369 63.5587 -56.8871)" width="2.937" height="5.457"/></g><g><rect x="89.63" y="36.578" transform="matrix(0.3011 0.9536 -0.9536 0.3011 101.8008 -58.9243)" width="2.936" height="6.814"/></g><g><rect x="83.491" y="56.236" transform="matrix(0.7422 0.6702 -0.6702 0.7422 61.3216 -44.0039)" width="8.733" height="2.936"/></g></svg>